{
  "accessors": [
    {
      "bufferView": 2,
      "componentType": 5126,
      "count": 65534,
      "max": [
        360.36993408203125,
        302.36248779296875,
        341.2640380859375
      ],
      "min": [
        -302.21783447265625,
        -302.98895263671875,
        -341.43722534179688
      ],
      "type": "VEC3"
    },
    {
      "bufferView": 2,
      "byteOffset": 786408,
      "componentType": 5126,
      "count": 65534,
      "max": [
        1,
        1,
        0.99987649917602539
      ],
      "min": [
        -1,
        -1,
        -0.99987614154815674
      ],
      "type": "VEC3"
    },
    {
      "bufferView": 1,
      "componentType": 5126,
      "count": 65534,
      "max": [
        343.46258544921875,
        248.26918029785156
      ],
      "min": [
        -308.61358642578125,
        -185.23275756835938
      ],
      "type": "VEC2"
    },
    {
      "bufferView": 0,
      "componentType": 5125,
      "count": 129429,
      "max": [
        65533
      ],
      "min": [
        0
      ],
      "type": "SCALAR"
    },
    {
      "bufferView": 2,
      "byteOffset": 1572816,
      "componentType": 5126,
      "count": 28051,
      "max": [
        337.18331909179688,
        360.10589599609375,
        213.295166015625
      ],
      "min": [
        -359.84173583984375,
        -360.1058349609375,
        -308.89501953125
      ],
      "type": "VEC3"
    },
    {
      "bufferView": 2,
      "byteOffset": 1909428,
      "componentType": 5126,
      "count": 28051,
      "max": [
        0.99947559833526611,
        0.99947559833526611,
        0.99164283275604248
      ],
      "min": [
        -0.99947559833526611,
        -0.99947541952133179,
        -0.99717193841934204
      ],
      "type": "VEC3"
    },
    {
      "bufferView": 1,
      "byteOffset": 524272,
      "componentType": 5126,
      "count": 28051,
      "max": [
        1,
        1
      ],
      "min": [
        0.12249073386192322,
        0
      ],
      "type": "VEC2"
    },
    {
      "bufferView": 0,
      "byteOffset": 517716,
      "componentType": 5125,
      "count": 28131,
      "max": [
        28050
      ],
      "min": [
        0
      ],
      "type": "SCALAR"
    },
    {
      "bufferView": 2,
      "byteOffset": 2246040,
      "componentType": 5126,
      "count": 44545,
      "max": [
        353.66848754882812,
        353.40426635742188,
        639.72833251953125
      ],
      "min": [
        -353.14013671875,
        -353.40420532226562,
        -297.8494873046875
      ],
      "type": "VEC3"
    },
    {
      "bufferView": 2,
      "byteOffset": 2780580,
      "componentType": 5126,
      "count": 44545,
      "max": [
        1,
        1,
        1
      ],
      "min": [
        -1,
        -1,
        -1
      ],
      "type": "VEC3"
    },
    {
      "bufferView": 1,
      "byteOffset": 748680,
      "componentType": 5126,
      "count": 44545,
      "max": [
        400.95364379882812,
        189.72831726074219
      ],
      "min": [
        -59.5,
        -59.5
      ],
      "type": "VEC2"
    },
    {
      "bufferView": 0,
      "byteOffset": 630240,
      "componentType": 5125,
      "count": 235794,
      "max": [
        44544
      ],
      "min": [
        0
      ],
      "type": "SCALAR"
    },
    {
      "bufferView": 2,
      "byteOffset": 3315120,
      "componentType": 5126,
      "count": 2424,
      "max": [
        308.627197265625,
        307.85577392578125,
        141.28634643554688
      ],
      "min": [
        -307.711181640625,
        -308.482177734375,
        56.907035827636719
      ],
      "type": "VEC3"
    },
    {
      "bufferView": 2,
      "byteOffset": 3344208,
      "componentType": 5126,
      "count": 2424,
      "max": [
        0.99933743476867676,
        0.99933743476867676,
        0.99089717864990234
      ],
      "min": [
        -0.99933743476867676,
        -0.99933743476867676,
        -0.98933017253875732
      ],
      "type": "VEC3"
    },
    {
      "bufferView": 1,
      "byteOffset": 1105040,
      "componentType": 5126,
      "count": 2424,
      "max": [
        1.5195931196212769,
        1.0768181085586548
      ],
      "min": [
        -0.059445284307003021,
        -0.4798276424407959
      ],
      "type": "VEC2"
    },
    {
      "bufferView": 0,
      "byteOffset": 1573416,
      "componentType": 5125,
      "count": 6864,
      "max": [
        2423
      ],
      "min": [
        0
      ],
      "type": "SCALAR"
    },
    {
      "bufferView": 2,
      "byteOffset": 3373296,
      "componentType": 5126,
      "count": 62406,
      "max": [
        365.05862426757812,
        364.7945556640625,
        223.93109130859375
      ],
      "min": [
        -364.53042602539062,
        -364.79449462890625,
        -246.54930114746094
      ],
      "type": "VEC3"
    },
    {
      "bufferView": 2,
      "byteOffset": 4122168,
      "componentType": 5126,
      "count": 62406,
      "max": [
        0.9995802640914917,
        0.99958032369613647,
        0.99999910593032837
      ],
      "min": [
        -0.99958032369613647,
        -0.99958044290542603,
        -0.99999910593032837
      ],
      "type": "VEC3"
    },
    {
      "bufferView": 1,
      "byteOffset": 1124432,
      "componentType": 5126,
      "count": 62406,
      "max": [
        35.416187286376953,
        37.549160003662109
      ],
      "min": [
        -34.416191101074219,
        -36.549160003662109
      ],
      "type": "VEC2"
    },
    {
      "bufferView": 0,
      "byteOffset": 1600872,
      "componentType": 5125,
      "count": 154380,
      "max": [
        62405
      ],
      "min": [
        0
      ],
      "type": "SCALAR"
    },
    {
      "bufferView": 2,
      "byteOffset": 4871040,
      "componentType": 5126,
      "count": 1280,
      "max": [
        294.9271240234375,
        294.15582275390625,
        -0.16168212890625
      ],
      "min": [
        -294.0111083984375,
        -294.7822265625,
        -130.10934448242188
      ],
      "type": "VEC3"
    },
    {
      "bufferView": 2,
      "byteOffset": 4886400,
      "componentType": 5126,
      "count": 1280,
      "max": [
        1,
        1,
        0.99987637996673584
      ],
      "min": [
        -1,
        -1,
        -0.99987637996673584
      ],
      "type": "VEC3"
    },
    {
      "bufferView": 1,
      "byteOffset": 1623680,
      "componentType": 5126,
      "count": 1280,
      "max": [
        322.969482421875,
        159.82646179199219
      ],
      "min": [
        -288.06631469726562,
        -164.66838073730469
      ],
      "type": "VEC2"
    },
    {
      "bufferView": 0,
      "byteOffset": 2218392,
      "componentType": 5125,
      "count": 7488,
      "max": [
        1279
      ],
      "min": [
        0
      ],
      "type": "SCALAR"
    }
  ],
  "asset": {
    "extras": {
      "author": "Skover (https://sketchfab.com/Skover)",
      "license": "CC-BY-4.0 (http://creativecommons.org/licenses/by/4.0/)",
      "source": "https://sketchfab.com/3d-models/710082-tesoro-osgona-chandelier-6c0884fde2544e5f95cd31f640396ce7",
      "title": "710082 Tesoro Osgona chandelier"
    },
    "generator": "Sketchfab-9.28.2",
    "version": "2.0"
  },
  "bufferViews": [
    {
      "buffer": 0,
      "byteLength": 2248344,
      "byteOffset": 0,
      "name": "floatBufferViews",
      "target": 34963
    },
    {
      "buffer": 0,
      "byteLength": 1633920,
      "byteOffset": 2248344,
      "byteStride": 8,
      "name": "floatBufferViews",
      "target": 34962
    },
    {
      "buffer": 0,
      "byteLength": 4901760,
      "byteOffset": 3882264,
      "byteStride": 12,
      "name": "floatBufferViews",
      "target": 34962
    }
  ],
  "buffers": [
    {
      "byteLength": 8784024,
      "uri": "scene.bin"
    }
  ],
  "materials": [
    {
      "alphaMode": "BLEND",
      "doubleSided": true,
      "name": "Glass_Crystal_Clear_Simple",
      "pbrMetallicRoughness": {
        "baseColorFactor": [
          1,
          1,
          1,
          0
        ],
        "metallicFactor": 0,
        "roughnessFactor": 0
      }
    },
    {
      "doubleSided": true,
      "name": "Metal_Gold_Karat",
      "pbrMetallicRoughness": {
        "baseColorFactor": [
          1,
          0.61911083855299742,
          0.19028566855800069,
          1
        ],
        "metallicFactor": 1,
        "roughnessFactor": 0
      }
    },
    {
      "doubleSided": true,
      "emissiveFactor": [
        1,
        1,
        1
      ],
      "name": "Material_19",
      "pbrMetallicRoughness": {
        "baseColorFactor": [
          1,
          1,
          1,
          1
        ],
        "metallicFactor": 0,
        "roughnessFactor": 0.59999999999999998
      }
    },
    {
      "alphaMode": "BLEND",
      "doubleSided": true,
      "name": "crystal_orange",
      "pbrMetallicRoughness": {
        "baseColorFactor": [
          1,
          0.6724431569576873,
          0.41788507084813731,
          0
        ],
        "metallicFactor": 0,
        "roughnessFactor": 0
      }
    },
    {
      "doubleSided": true,
      "name": "trubka",
      "pbrMetallicRoughness": {
        "baseColorFactor": [
          0.7738920404453119,
          0.7738920404453119,
          0.7738920404453119,
          1
        ],
        "metallicFactor": 0,
        "roughnessFactor": 0.5185247675853808
      }
    }
  ],
  "meshes": [
    {
      "name": "710082_Tesoro_Osgona_Glass_Crystal_Clear_Simple_0",
      "primitives": [
        {
          "attributes": {
            "NORMAL": 1,
            "POSITION": 0,
            "TEXCOORD_0": 2
          },
          "indices": 3,
          "material": 0,
          "mode": 4
        }
      ]
    },
    {
      "name": "710082_Tesoro_Osgona_Glass_Crystal_Clear_Simple_0",
      "primitives": [
        {
          "attributes": {
            "NORMAL": 5,
            "POSITION": 4,
            "TEXCOORD_0": 6
          },
          "indices": 7,
          "material": 0,
          "mode": 4
        }
      ]
    },
    {
      "name": "710082_Tesoro_Osgona_Metal_Gold_Karat_0",
      "primitives": [
        {
          "attributes": {
            "NORMAL": 9,
            "POSITION": 8,
            "TEXCOORD_0": 10
          },
          "indices": 11,
          "material": 1,
          "mode": 4
        }
      ]
    },
    {
      "name": "710082_Tesoro_Osgona_Material #19_0",
      "primitives": [
        {
          "attributes": {
            "NORMAL": 13,
            "POSITION": 12,
            "TEXCOORD_0": 14
          },
          "indices": 15,
          "material": 2,
          "mode": 4
        }
      ]
    },
    {
      "name": "710082_Tesoro_Osgona_crystal_orange_0",
      "primitives": [
        {
          "attributes": {
            "NORMAL": 17,
            "POSITION": 16,
            "TEXCOORD_0": 18
          },
          "indices": 19,
          "material": 3,
          "mode": 4
        }
      ]
    },
    {
      "name": "710082_Tesoro_Osgona_trubka_0",
      "primitives": [
        {
          "attributes": {
            "NORMAL": 21,
            "POSITION": 20,
            "TEXCOORD_0": 22
          },
          "indices": 23,
          "material": 4,
          "mode": 4
        }
      ]
    }
  ],
  "nodes": [
    {
      "children": [
        1
      ],
      "name": "RootNode (gltf orientation matrix)",
      "rotation": [
        -0.70710678118654746,
        -0,
        -0,
        0.70710678118654757
      ]
    },
    {
      "children": [
        2
      ],
      "name": "RootNode (model correction matrix)"
    },
    {
      "children": [
        3
      ],
      "matrix": [
        1,
        0,
        0,
        0,
        0,
        0,
        1,
        0,
        0,
        -1,
        0,
        0,
        0,
        0,
        0,
        1
      ],
      "name": "a58de61a265149d9ba8a480a1e9c9d7d.fbx"
    },
    {
      "children": [
        4
      ],
      "name": "RootNode"
    },
    {
      "children": [
        5,
        6,
        7,
        8,
        9,
        10
      ],
      "matrix": [
        1,
        0,
        0,
        0,
        0,
        2.2204460492503131e-16,
        -1,
        0,
        0,
        1,
        2.2204460492503131e-16,
        0,
        0,
        0,
        0,
        1
      ],
      "name": "710082_Tesoro_Osgona"
    },
    {
      "mesh": 0,
      "name": "710082_Tesoro_Osgona_Glass_Crystal_Clear_Simple_0"
    },
    {
      "mesh": 1,
      "name": "710082_Tesoro_Osgona_Glass_Crystal_Clear_Simple_0"
    },
    {
      "mesh": 2,
      "name": "710082_Tesoro_Osgona_Metal_Gold_Karat_0"
    },
    {
      "mesh": 3,
      "name": "710082_Tesoro_Osgona_Material #19_0"
    },
    {
      "mesh": 4,
      "name": "710082_Tesoro_Osgona_crystal_orange_0"
    },
    {
      "mesh": 5,
      "name": "710082_Tesoro_Osgona_trubka_0"
    }
  ],
  "scene": 0,
  "scenes": [
    {
      "name": "OSG_Scene",
      "nodes": [
        0
      ]
    }
  ]
}

